# xmcd
# 
# Track frame offsets:
#     150
#     19417
#     35672
#     53985
#     66725
#     88507
#     94280
#     112220
#     129817
#     146277
#     163542
# 
# Disc length: 2490
# 
# Revision: 13
# Processed by: cddbd v1.5.2PL0 Copyright (c) Steve Scherf et al.
# Submitted via: fre:ac v1.0.31
# 
DISCID=9d09b80b
DTITLE=RENAUD - Mistral_Gagnant
DYEAR=1985
DGENRE=Chanson
TTITLE0=Miss Maggie
TTITLE1=La pêche à la ligne
TTITLE2=Si t'es mon pote
TTITLE3=Mistral gagnant
TTITLE4=Trois matelots
TTITLE5=Tu vas au bal
TTITLE6=Morts les enfants
TTITLE7=Baby-sitting blues
TTITLE8=P'tite conne
TTITLE9=Le retour de la Pépette
TTITLE10=Fatigué
EXTD=YEAR: 1985
EXTT0=
EXTT1=
EXTT2=
EXTT3=
EXTT4=
EXTT5=
EXTT6=
EXTT7=
EXTT8=
EXTT9=
EXTT10=
PLAYORDER=
